# xmcd
#
# Track frame offsets:
#       150
#       16783
#       36257
#       51086
#       75786
#       107439
#       129717
#       144501
#       163194
#       195408
#       212657
#       234658
#       260516
#       305099
#
# Disc length: 4282 seconds
#
# Revision: 2
# Processed by: cddbd v1.4PL0 Copyright (c) Steve Scherf et al.
# Submitted via: MusiCat 1.1
#
DISCID=b610b80e
DTITLE=Bruce Springsteen - Intimate Night CD 2
DYEAR=2003
DGENRE=
TTITLE0=Souls of the Departed
TTITLE1=The Wall
TTITLE2=Bobby Jean
TTITLE3=My Hometown
TTITLE4=Brilliant Disguise
TTITLE5=Stolen Cars/Save the Last Dance for Me
TTITLE6=Little Things That Count
TTITLE7=If I Should Fall Behind
TTITLE8=The Gosht of Tom Joad
TTITLE9=Sinaloa Cowboys
TTITLE10=The Rising
TTITLE11=Waitin' on a Sunny Day
TTITLE12=The Promised Land
TTITLE13=Across the Border
EXTD=2003\nThe Godfatherecords\nG.R. 17/18\nSomerville, MA, Somerville Theatre
EXTD=, Februari 19th, 2003\r\n\r\nThe first of two benifit acoustic shows for 
EXTD=the struggling DoubleTake Magazine, billed as "two intimate evenings of m
EXTD=usic and conversation"
EXTT0=
EXTT1=world premiere, co-written with Joe Crushecky\r\n
EXTT2=
EXTT3=piano
EXTT4=
EXTT5=partial
EXTT6=
EXTT7=piano
EXTT8=
EXTT9=
EXTT10=
EXTT11=
EXTT12=
EXTT13=
PLAYORDER=
